<svg xmlns="http://www.w3.org/2000/svg" width="16" height="16" id="b"><path fill-rule="evenodd" d="M5.984 3a.997.997 0 0 0-.53.164.997.997 0 0 0-.01.006.997.997 0 0 0-.145.12.997.997 0 0 0-.01.01.997.997 0 0 0-.041.044.997.997 0 0 0-.031.035.997.997 0 0 0-.03.043.997.997 0 0 0-.029.039.997.997 0 0 0-.021.037.997.997 0 0 0-.028.05.997.997 0 0 0-.02.044.997.997 0 0 0-.02.047.997.997 0 0 0-.01.027.997.997 0 0 0-.055.414v3.822a.997.997 0 0 0 0 .18v3.832a.997.997 0 0 0 .016.274.997.997 0 0 0 .023.095.997.997 0 0 0 .033.096.997.997 0 0 0 .043.09.997.997 0 0 0 .05.086.997.997 0 0 0 .042.056.997.997 0 0 0 .033.04.997.997 0 0 0 .002.003.997.997 0 0 0 .066.07.997.997 0 0 0 .077.065.997.997 0 0 0 .082.057.997.997 0 0 0 .086.049.997.997 0 0 0 .187.07.997.997 0 0 0 .197.031.997.997 0 0 0 .141 0H7.99V13c.016 0 .03-.004.045-.004a.997.997 0 0 0 .186-.02c1.532-.12 2.76-1.405 2.76-2.966A2.97 2.97 0 0 0 10.183 8a2.97 2.97 0 0 0 .796-2.01c0-1.566-1.234-2.854-2.773-2.969a.997.997 0 0 0-.178-.017C8.016 3.004 8.004 3 7.99 3v.004H6.086A.997.997 0 0 0 5.984 3zm1.012 1.996H8a.97.97 0 0 1 .986.994c0 .57-.426.998-.996.998v.016h-.994V4.996zm0 4.002h.994v.014c.57 0 .996.428.996.998 0 .564-.419.986-.98.994h-1.01V8.998z" color="#000" font-family="sans-serif" font-weight="400" overflow="visible" style="line-height:normal;text-indent:0;text-align:start;text-decoration-line:none;text-decoration-style:solid;text-decoration-color:#000;text-transform:none;block-progression:tb;white-space:normal;isolation:auto;mix-blend-mode:normal;solid-color:#000;solid-opacity:1"></path></svg>