<svg xmlns="http://www.w3.org/2000/svg" viewBox="0 0 64 64" id="text"><g data-name="Layer 2"><rect width="8" height="8" x="28" y="3" fill="#ccdde7" rx="2"></rect><rect width="8" height="8" x="28" y="53" fill="#ccdde7" rx="2"></rect><rect width="8" height="8" x="53" y="28" fill="#ccdde7" rx="2"></rect><rect width="8" height="8" x="3" y="28" fill="#ccdde7" rx="2"></rect><path fill="#168fd6" d="M47 19v3a2.006 2.006 0 0 1-2 2h-7v21a2.006 2.006 0 0 1-2 2h-8a2.006 2.006 0 0 1-2-2V24h-7a2.006 2.006 0 0 1-2-2v-3a2.006 2.006 0 0 1 2-2h26a2.006 2.006 0 0 1 2 2Z"></path><path fill="#fff" d="M33 3v3.06a2 2 0 0 1-2 2h-3V5a2.006 2.006 0 0 1 2-2zm0 50v3.06a2 2 0 0 1-2 2h-3V55a2.006 2.006 0 0 1 2-2zm25-25v3.06a2 2 0 0 1-2 2h-3V30a2.006 2.006 0 0 1 2-2zM8 28v3.06a2 2 0 0 1-2 2H3V30a2.006 2.006 0 0 1 2-2zm36-11v3a2.006 2.006 0 0 1-2 2h-7v21a2.006 2.006 0 0 1-2 2h-7V24h-7a2.006 2.006 0 0 1-2-2v-3a2.006 2.006 0 0 1 2-2z" opacity=".2"></path><path fill="#043968" d="M19.212 8.356a27.222 27.222 0 0 0-2.651 1.63 1 1 0 1 0 1.144 1.641 24.91 24.91 0 0 1 2.454-1.51 1 1 0 0 0-.947-1.761zm-10.386 9.92a27.37 27.37 0 0 0-1.442 2.76 1 1 0 1 0 1.822.823 25.14 25.14 0 0 1 1.337-2.555 1 1 0 0 0-1.717-1.027zm4.523-5.66a27.448 27.448 0 0 0-2.122 2.275 1 1 0 1 0 1.537 1.28 25.238 25.238 0 0 1 1.967-2.11 1 1 0 0 0-1.382-1.445zm25.319 43.622c-.549.151-1.107.278-1.668.392v-1.49a3.003 3.003 0 0 0-3-3h-4a3.003 3.003 0 0 0-3 3v1.75c-.716-.68-2.36-.689-3.33-1.174a1 1 0 0 0-.664 1.887 20.39 20.39 0 0 0 3.213.888.994.994 0 0 0 .781-.395v1.044a3.003 3.003 0 0 0 3 3h4a3.072 3.072 0 0 0 3-3.478c1.009-.32 3.18-.164 2.898-1.726a1.004 1.004 0 0 0-1.23-.698zM35 59.14a1 1 0 0 1-1 1h-4a1 1 0 0 1-1-1v-4a1 1 0 0 1 1-1c5.982.093 4.905-.977 5 5zm9.836-5.543a25.138 25.138 0 0 1-2.555 1.337 1.005 1.005 0 0 0 .412 1.911 13.656 13.656 0 0 0 3.17-1.531 1 1 0 0 0-1.027-1.717zm5.243-4.188a25.24 25.24 0 0 1-2.11 1.967 1 1 0 1 0 1.28 1.537 27.448 27.448 0 0 0 2.275-2.122 1 1 0 0 0-1.445-1.382zm5.298-5.835a1 1 0 0 0-1.354.407 24.91 24.91 0 0 1-1.51 2.454 1 1 0 1 0 1.64 1.144 27.222 27.222 0 0 0 1.631-2.651 1 1 0 0 0-.407-1.354zM7.902 38.808a24.912 24.912 0 0 1-.392-1.668H9a3.003 3.003 0 0 0 3-3v-4a3.003 3.003 0 0 0-3-3H7.51c.096-.951 1.025-2.457-.306-2.898-1.56-.276-1.407 1.886-1.726 2.898a3.072 3.072 0 0 0-3.478 3v4a3.072 3.072 0 0 0 3.478 3c.328.97.12 2.827 1.46 2.934a1.004 1.004 0 0 0 .964-1.266zM4 34.14c.093-5.982-.977-4.905 5-5a1 1 0 0 1 1 1v4a1 1 0 0 1-1 1H5a1 1 0 0 1-1-1zm8.764 13.97a1 1 0 0 0-1.537 1.279c.81.781 1.689 2.343 2.813 2.553a1.007 1.007 0 0 0 .691-1.723 25.246 25.246 0 0 1-1.967-2.11zM9.206 42.42a.998.998 0 0 0-1.322-.5c-1.522.779.507 3.028.942 4.082a1 1 0 0 0 1.717-1.027 25.142 25.142 0 0 1-1.337-2.555zM20.16 54.162a24.908 24.908 0 0 1-2.454-1.51 1 1 0 1 0-1.144 1.641 11.875 11.875 0 0 0 3.124 1.75 1.006 1.006 0 0 0 .474-1.88zM42.281 9.346c1.057.374 1.989 1.212 3.068 1.479a1.006 1.006 0 0 0 .514-1.859c-1.056-.436-3.299-2.464-4.082-.942a.999.999 0 0 0 .5 1.322zm6.968 2.02a1 1 0 0 0-1.28 1.538 25.241 25.241 0 0 1 2.11 1.967 1 1 0 0 0 1.414.032c1.169-1.269-1.489-2.68-2.244-3.536zm4.773 8.933a1 1 0 0 0 1.762-.947 27.22 27.22 0 0 0-1.63-2.651 1 1 0 1 0-1.641 1.144 24.91 24.91 0 0 1 1.51 2.454zM30 12.14h4a3.003 3.003 0 0 0 3-3V7.65c.953.094 2.449 1.029 2.897-.306C40.18 5.782 38.011 5.94 37 5.617a3.072 3.072 0 0 0-3-3.477h-4a3.003 3.003 0 0 0-3 3v1.038a1 1 0 0 0-1.003-.364 27.085 27.085 0 0 0-2.991.863 1.003 1.003 0 0 0 .332 1.943c1.037-.22 2.049-.663 3.1-.855A.984.984 0 0 0 27 7.391V9.14a3.003 3.003 0 0 0 3 3zm-1-7a1 1 0 0 1 1-1h4a1 1 0 0 1 1 1v4a1 1 0 0 1-1 1c-5.982-.093-4.905.977-5-5zm30 22h-1.037a.995.995 0 0 0 .363-1.003 27.085 27.085 0 0 0-.863-2.991 1 1 0 0 0-1.887.664c.497 1.018.47 2.488 1.152 3.33H55a3.003 3.003 0 0 0-3 3v4a3.003 3.003 0 0 0 3 3h1.749c-.679.716-.688 2.36-1.173 3.33a1 1 0 0 0 1.887.664 27.084 27.084 0 0 0 .863-2.991.995.995 0 0 0-.363-1.003H59a3.003 3.003 0 0 0 3-3v-4a3.003 3.003 0 0 0-3-3zm1 7a1 1 0 0 1-1 1h-4a1 1 0 0 1-1-1v-4a1 1 0 0 1 1-1c5.982.093 4.905-.977 5 5zm-12-15a3.003 3.003 0 0 0-3-3H19a3.003 3.003 0 0 0-3 3v3a3.003 3.003 0 0 0 3 3h6v20a3.003 3.003 0 0 0 3 3h8a3.003 3.003 0 0 0 3-3v-20h6a3.003 3.003 0 0 0 3-3zm-2 3a1 1 0 0 1-1 1h-7a1 1 0 0 0-1 1v21a1 1 0 0 1-1 1h-8a1 1 0 0 1-1-1v-21a1 1 0 0 0-1-1h-7a1 1 0 0 1-1-1v-3a1 1 0 0 1 1-1h26a1 1 0 0 1 1 1z"></path></g></svg>