<svg xmlns="http://www.w3.org/2000/svg" data-name="Layer 13" viewBox="0 0 24 24" id="home-paint"><path fill="#333" d="M21,5H18a1,1,0,0,0,0,2h2V7.9448a3.0064,3.0064,0,0,1-2.2109,2.894L11.21,12.6328A3.0066,3.0066,0,0,0,9,15.5273V21a1,1,0,0,0,1,1h3a1,1,0,0,0,1-1V16a1,1,0,0,0-2,0v4H11V15.5273a1.0014,1.0014,0,0,1,.7368-0.9648l6.5786-1.7939A5.011,5.011,0,0,0,22,7.9448V6A1,1,0,0,0,21,5Z"></path><path fill="#36b7ff" d="M3 11a1 1 0 00-1 1v3a1 1 0 002 0V12A1 1 0 003 11zM6 12a1 1 0 00-1 1v4a1 1 0 002 0V13A1 1 0 006 12zM16 2H5A3.0033 3.0033 0 002 5V7a3.0033 3.0033 0 003 3H16a3.0033 3.0033 0 003-3V5A3.0033 3.0033 0 0016 2zm1 5a1.0013 1.0013 0 01-1 1H5A1.0013 1.0013 0 014 7V5A1.0013 1.0013 0 015 4H16a1.0013 1.0013 0 011 1V7z"></path></svg>