<svg xmlns="http://www.w3.org/2000/svg" enable-background="new 0 0 24 24" viewBox="0 0 24 24" id="direction"><path d="M17.293,8.707C17.4883,8.9023,17.7441,9,18,9s0.5117-0.0977,0.707-0.293l2-2c0.3906-0.3906,0.3906-1.0234,0-1.4141l-2-2
		c-0.3906-0.3906-1.0234-0.3906-1.4141,0s-0.3906,1.0234,0,1.4141L17.5859,5h-2.3203C13.948,5,12.783,5.6129,12,6.5543
		C11.217,5.6129,10.052,5,8.7344,5H6.4141l0.293-0.293c0.3906-0.3906,0.3906-1.0234,0-1.4141s-1.0234-0.3906-1.4141,0l-2,2
		c-0.3906,0.3906-0.3906,1.0234,0,1.4141l2,2C5.4883,8.9023,5.7441,9,6,9s0.5117-0.0977,0.707-0.293
		c0.3906-0.3906,0.3906-1.0234,0-1.4141L6.4141,7h2.3203C9.9834,7,11,8.0166,11,9.2656v3.8763C9.2795,13.5891,8,15.1413,8,17
		c0,2.2061,1.7939,4,4,4s4-1.7939,4-4c0-1.8587-1.2795-3.4109-3-3.858V9.2656C13,8.0166,14.0166,7,15.2656,7h2.3203l-0.293,0.293
		C16.9023,7.6836,16.9023,8.3164,17.293,8.707z"></path></svg>