<svg xmlns="http://www.w3.org/2000/svg" width="16" height="16" id="h"><path style="line-height:normal;text-indent:0;text-align:start;text-decoration-line:none;text-decoration-style:solid;text-decoration-color:#000;text-transform:none;block-progression:tb;white-space:normal;isolation:auto;mix-blend-mode:normal;solid-color:#000;solid-opacity:1" fill-rule="evenodd" d="M4.979 3a1 1 0 0 0-.983 1.016v3.947a1 1 0 0 0 0 .084v3.94a1 1 0 1 0 1.998 0V9h3.998v2.986a1 1 0 1 0 1.998 0V8.187a1 1 0 0 0 0-.363V4.016A1 1 0 0 0 10.975 3a1 1 0 0 0-.983 1.016v2.986H5.994V4.016A1 1 0 0 0 4.98 3z" color="#000" enable-background="accumulate" font-family="sans-serif" font-weight="400" overflow="visible"></path></svg>