<?xml version="1.0" standalone="no"?>
<!DOCTYPE svg PUBLIC "-//W3C//DTD SVG 20010904//EN"
 "http://www.w3.org/TR/2001/REC-SVG-20010904/DTD/svg10.dtd">
<svg version="1.0" xmlns="http://www.w3.org/2000/svg"
 width="1024.000000pt" height="1024.000000pt" viewBox="0 0 1024.000000 1024.000000"
 preserveAspectRatio="xMidYMid meet">
<metadata>
Created by potrace 1.14, written by Peter Selinger 2001-2017
</metadata>
<g transform="translate(0.000000,1024.000000) scale(0.100000,-0.100000)"
fill="#000000" stroke="none">
<path d="M2325 10230 c-133 -14 -162 -19 -379 -65 -59 -13 -216 -63 -314 -101
-759 -292 -1346 -952 -1547 -1739 -19 -71 -36 -146 -39 -165 -3 -19 -11 -66
-17 -105 -6 -38 -13 -81 -17 -95 -10 -37 -12 -5577 -3 -5635 5 -27 12 -75 15
-105 13 -114 40 -242 82 -382 252 -860 939 -1526 1809 -1753 118 -31 161 -40
235 -50 240 -34 177 -33 2955 -33 1491 0 2746 4 2790 8 81 8 149 17 195 25 14
3 41 7 60 10 29 5 104 22 180 40 56 14 133 37 180 54 30 11 74 27 97 35 133
49 392 187 533 285 506 351 878 891 1024 1486 13 55 27 116 30 135 3 19 8 46
11 60 3 14 8 48 11 75 3 28 8 61 12 75 4 14 7 1269 8 2790 2 2976 4 2857 -51
3125 -179 875 -830 1609 -1685 1898 -157 53 -345 98 -470 113 -25 2 -76 9
-115 14 -84 10 -5490 10 -5590 0z"/>
</g>
</svg>
